# xmcd
#
# Track frame offsets: 
#        150
#        22221
#        40913
#        62181
#        84174
#        102626
#        129483
#        157323
#        173449
#        188281
#        212574
#        231112
#        253336
#        276896
#        321353
#
# Disc length: 4543 seconds
#
# Revision: 2
# Processed by: cddbd v1.5.2PL0 Copyright (c) Steve Scherf et al.
# Submitted via: ExactAudioCopy v1.0b2
#
DISCID=d411bd0f
DTITLE=Eoghan Heaslip - Grace in the Wilderness
DYEAR=2004
DGENRE=Christian
TTITLE0=Let Your Name Be Glorified
TTITLE1=You Shaped the Heavens
TTITLE2=King of the Ages
TTITLE3=Great Redeemer
TTITLE4=Offering
TTITLE5=How Majestic
TTITLE6=Grace in the Wilderness
TTITLE7=Holy Is the Lord
TTITLE8=Doxology (Praise God From Whom All Blessings Flow)
TTITLE9=Gathering Song
TTITLE10=You Are Enough
TTITLE11=Come and Heal Us
TTITLE12=Secret Place
TTITLE13=Love Beyond Measure - Amazing Grace
TTITLE14=Daten-CD
EXTD=
EXTT0=
EXTT1=
EXTT2=
EXTT3=
EXTT4=
EXTT5=
EXTT6=
EXTT7=
EXTT8=
EXTT9=
EXTT10=
EXTT11=
EXTT12=
EXTT13=
EXTT14=
PLAYORDER=
